<svg width="30" height="31" viewBox="0 0 30 31" fill="none" xmlns="http://www.w3.org/2000/svg">
<g clip-path="url(#clip0_1_5560)">
<g filter="url(#filter0_d_1_5560)">
<path d="M20.9698 14.3445C22.8863 13.197 24.1649 11.1278 24.1649 8.76554C24.1649 5.15814 21.1845 2.23438 17.5071 2.23438C13.8298 2.23438 10.8494 5.15814 10.8494 8.76554C10.8494 10.9599 11.9538 12.8979 13.6431 14.082C10.0311 15.4127 7.45825 18.8309 7.45825 22.8381C7.45825 28.002 26.5231 28.002 26.5231 22.8381C26.5231 19.0689 24.2489 15.8247 20.976 14.3445H20.9698Z" fill="url(#paint0_radial_1_5560)"/>
</g>
<path d="M18.2849 16.7312C20.4751 15.4219 21.9342 13.0567 21.9342 10.3557C21.9342 6.23251 18.5275 2.89062 14.3244 2.89062C10.1213 2.89062 6.71464 6.23251 6.71464 10.3557C6.71464 12.8613 7.97464 15.0771 9.90664 16.4321C5.7782 17.952 2.8382 21.8554 2.8382 26.4364C2.8382 32.3358 24.6222 32.3358 24.6222 26.4364C24.6222 22.1301 22.0244 18.422 18.2818 16.7312H18.2849Z" fill="url(#paint1_radial_1_5560)"/>
<path opacity="0.35" d="M18.2849 16.7312C20.4751 15.4219 21.9342 13.0567 21.9342 10.3557C21.9342 6.23251 18.5275 2.89062 14.3244 2.89062C10.1213 2.89062 6.71464 6.23251 6.71464 10.3557C6.71464 12.8613 7.97464 15.0771 9.90664 16.4321C5.7782 17.952 2.8382 21.8554 2.8382 26.4364C2.8382 32.3358 24.6222 32.3358 24.6222 26.4364C24.6222 22.1301 22.0244 18.422 18.2818 16.7312H18.2849Z" fill="url(#paint2_radial_1_5560)"/>
<path opacity="0.32" d="M18.2849 16.7312C20.4751 15.4219 21.9342 13.0567 21.9342 10.3557C21.9342 6.23251 18.5275 2.89062 14.3244 2.89062C10.1213 2.89062 6.71464 6.23251 6.71464 10.3557C6.71464 12.8613 7.97464 15.0771 9.90664 16.4321C5.7782 17.952 2.8382 21.8554 2.8382 26.4364C2.8382 32.3358 24.6222 32.3358 24.6222 26.4364C24.6222 22.1301 22.0244 18.422 18.2818 16.7312H18.2849Z" fill="url(#paint3_radial_1_5560)"/>
<path opacity="0.5" d="M14.3275 3.34842C18.2662 3.34842 21.4706 6.49192 21.4706 10.3557C21.4706 12.8186 20.1889 15.0557 18.0422 16.3406C17.896 16.4291 17.8089 16.5878 17.8182 16.7587C17.8275 16.9296 17.9333 17.0761 18.0889 17.1493C21.7755 18.8157 24.1555 22.4628 24.1555 26.4395C24.1555 29.0458 18.9102 30.407 13.7302 30.407C8.5502 30.407 3.30486 29.0428 3.30486 26.4395C3.30486 22.2003 6.02397 18.3518 10.0684 16.8624C10.2302 16.8045 10.3453 16.661 10.3671 16.4932C10.3889 16.3253 10.3173 16.1605 10.1742 16.0598C8.29819 14.7444 7.17819 12.6111 7.17819 10.3557C7.17819 6.49192 10.3826 3.34842 14.3213 3.34842M14.3213 2.89062C10.1182 2.89062 6.71153 6.23251 6.71153 10.3557C6.71153 12.8613 7.97153 15.0771 9.90353 16.4321C5.77508 17.952 2.83508 21.8585 2.83508 26.4364C2.83508 29.3876 8.27953 30.8617 13.7271 30.8617C19.1746 30.8617 24.6191 29.3876 24.6191 26.4364C24.6191 22.1301 22.0213 18.422 18.2786 16.7312C20.4689 15.4219 21.928 13.0567 21.928 10.3557C21.928 6.23251 18.5213 2.89062 14.3182 2.89062H14.3213Z" fill="url(#paint4_linear_1_5560)"/>
<path opacity="0.71" d="M17.6565 4.30628L20.3196 7.48641L18.1045 3.98887L21.3493 1.37641L17.784 3.54939L15.1209 0.366211L17.3329 3.8668L14.0911 6.47621L17.6565 4.30628Z" fill="url(#paint5_radial_1_5560)"/>
</g>
<defs>
<filter id="filter0_d_1_5560" x="5.59825" y="-3.34562" width="30.2249" height="35.6366" filterUnits="userSpaceOnUse" color-interpolation-filters="sRGB">
<feFlood flood-opacity="0" result="BackgroundImageFix"/>
<feColorMatrix in="SourceAlpha" type="matrix" values="0 0 0 0 0 0 0 0 0 0 0 0 0 0 0 0 0 0 127 0" result="hardAlpha"/>
<feOffset dx="3.72"/>
<feGaussianBlur stdDeviation="2.79"/>
<feColorMatrix type="matrix" values="0 0 0 0 0 0 0 0 0 0 0 0 0 0 0 0 0 0 0.25 0"/>
<feBlend mode="normal" in2="BackgroundImageFix" result="effect1_dropShadow_1_5560"/>
<feBlend mode="normal" in="SourceGraphic" in2="effect1_dropShadow_1_5560" result="shape"/>
</filter>
<radialGradient id="paint0_radial_1_5560" cx="0" cy="0" r="1" gradientUnits="userSpaceOnUse" gradientTransform="translate(19.9027 3.77866) scale(22.8356 22.4013)">
<stop stop-color="#00C4FF"/>
<stop offset="1" stop-color="#1942B7"/>
</radialGradient>
<radialGradient id="paint1_radial_1_5560" cx="0" cy="0" r="1" gradientUnits="userSpaceOnUse" gradientTransform="translate(15.0369 16.2826) scale(19.0991 18.7359)">
<stop stop-color="#6800FF"/>
<stop offset="0.33" stop-color="#6500FC"/>
<stop offset="0.52" stop-color="#5F04F4"/>
<stop offset="0.67" stop-color="#5309E6"/>
<stop offset="0.81" stop-color="#4311D2"/>
<stop offset="0.93" stop-color="#2E1CB9"/>
<stop offset="1" stop-color="#1F24A6"/>
</radialGradient>
<radialGradient id="paint2_radial_1_5560" cx="0" cy="0" r="1" gradientUnits="userSpaceOnUse" gradientTransform="translate(13.5591 17.0059) scale(13.8942 13.63)">
<stop stop-color="white" stop-opacity="0"/>
<stop offset="0.37" stop-color="white" stop-opacity="0"/>
<stop offset="0.51" stop-color="white" stop-opacity="0.03"/>
<stop offset="0.6" stop-color="white" stop-opacity="0.08"/>
<stop offset="0.68" stop-color="white" stop-opacity="0.15"/>
<stop offset="0.75" stop-color="white" stop-opacity="0.23"/>
<stop offset="0.8" stop-color="white" stop-opacity="0.34"/>
<stop offset="0.86" stop-color="white" stop-opacity="0.47"/>
<stop offset="0.91" stop-color="white" stop-opacity="0.61"/>
<stop offset="0.95" stop-color="white" stop-opacity="0.78"/>
<stop offset="0.99" stop-color="white" stop-opacity="0.96"/>
<stop offset="1" stop-color="white"/>
</radialGradient>
<radialGradient id="paint3_radial_1_5560" cx="0" cy="0" r="1" gradientUnits="userSpaceOnUse" gradientTransform="translate(12.3302 5.66179) scale(27.664 27.1379)">
<stop stop-color="white"/>
<stop offset="0.07" stop-color="white" stop-opacity="0.89"/>
<stop offset="0.27" stop-color="white" stop-opacity="0.63"/>
<stop offset="0.46" stop-color="white" stop-opacity="0.4"/>
<stop offset="0.63" stop-color="white" stop-opacity="0.23"/>
<stop offset="0.78" stop-color="white" stop-opacity="0.1"/>
<stop offset="0.91" stop-color="white" stop-opacity="0.03"/>
<stop offset="1" stop-color="white" stop-opacity="0"/>
</radialGradient>
<linearGradient id="paint4_linear_1_5560" x1="6.98531" y1="5.75946" x2="18.4015" y2="32.326" gradientUnits="userSpaceOnUse">
<stop stop-color="white" stop-opacity="0"/>
<stop offset="0.05" stop-color="white" stop-opacity="0.02"/>
<stop offset="0.12" stop-color="white" stop-opacity="0.08"/>
<stop offset="0.18" stop-color="white" stop-opacity="0.17"/>
<stop offset="0.26" stop-color="white" stop-opacity="0.3"/>
<stop offset="0.33" stop-color="white" stop-opacity="0.47"/>
<stop offset="0.41" stop-color="white" stop-opacity="0.67"/>
<stop offset="0.48" stop-color="white" stop-opacity="0.91"/>
<stop offset="0.51" stop-color="white" stop-opacity="0.96"/>
<stop offset="0.53" stop-color="white" stop-opacity="0.78"/>
<stop offset="0.56" stop-color="white" stop-opacity="0.61"/>
<stop offset="0.58" stop-color="white" stop-opacity="0.47"/>
<stop offset="0.61" stop-color="white" stop-opacity="0.34"/>
<stop offset="0.64" stop-color="white" stop-opacity="0.23"/>
<stop offset="0.67" stop-color="white" stop-opacity="0.15"/>
<stop offset="0.71" stop-color="white" stop-opacity="0.08"/>
<stop offset="0.75" stop-color="white" stop-opacity="0.03"/>
<stop offset="0.82" stop-color="white" stop-opacity="0"/>
<stop offset="1" stop-color="white" stop-opacity="0"/>
</linearGradient>
<radialGradient id="paint5_radial_1_5560" cx="0" cy="0" r="1" gradientUnits="userSpaceOnUse" gradientTransform="translate(17.7058 4.01397) rotate(53.6665) scale(4.40879 4.43483)">
<stop stop-color="white"/>
<stop offset="0.09" stop-color="white" stop-opacity="0.84"/>
<stop offset="0.23" stop-color="white" stop-opacity="0.62"/>
<stop offset="0.36" stop-color="white" stop-opacity="0.43"/>
<stop offset="0.5" stop-color="white" stop-opacity="0.28"/>
<stop offset="0.63" stop-color="white" stop-opacity="0.15"/>
<stop offset="0.76" stop-color="white" stop-opacity="0.07"/>
<stop offset="0.89" stop-color="white" stop-opacity="0.02"/>
<stop offset="1" stop-color="white" stop-opacity="0"/>
</radialGradient>
<clipPath id="clip0_1_5560">
<rect width="30" height="30" fill="white" transform="matrix(1 0 0 -1 0 30.8252)"/>
</clipPath>
</defs>
</svg>
