<svg width="47" height="48" viewBox="0 0 47 48" fill="none" xmlns="http://www.w3.org/2000/svg">
<g clip-path="url(#clip0_1_5466)">
<g filter="url(#filter0_d_1_5466)">
<path d="M31.5438 14.2199L25.8924 8.6434C24.5827 7.3533 22.4743 7.41818 21.2478 8.78462L15.7516 14.8954C15.18 15.5291 14.881 16.3649 14.9188 17.2237L15.7478 36.5906C15.8235 38.3845 17.3301 39.7777 19.1091 39.7013L30.2606 39.2166C32.0397 39.1403 33.4214 37.6211 33.3456 35.8272L32.5167 16.4107C32.4826 15.5863 32.1343 14.8038 31.5476 14.2237L31.5438 14.2199Z" fill="url(#paint0_radial_1_5466)"/>
</g>
<path d="M28.103 20.4147L26.1536 12.6894C25.7031 10.9031 23.8673 9.84959 22.1147 10.3725L14.2678 12.7046C13.4539 12.9451 12.765 13.5023 12.3562 14.2543L3.06328 31.2203C2.20401 32.7929 2.76802 34.7738 4.33135 35.6402L14.105 41.0793C15.6645 41.9457 17.6291 41.377 18.4884 39.8006L27.8002 22.785C28.1976 22.0598 28.3036 21.2124 28.103 20.4109V20.4147ZM23.0459 15.7772C22.3191 15.9222 21.6112 15.4451 21.4674 14.7123C21.3235 13.9795 21.7967 13.2657 22.5235 13.1168C23.2503 12.968 23.9581 13.4489 24.1057 14.1818C24.2534 14.9146 23.7764 15.6283 23.0496 15.7772H23.0459Z" fill="url(#paint1_linear_1_5466)"/>
<path opacity="0.35" d="M28.103 20.4147L26.1536 12.6894C25.7031 10.9031 23.8673 9.84959 22.1147 10.3725L14.2678 12.7046C13.4539 12.9451 12.765 13.5023 12.3562 14.2543L3.06328 31.2203C2.20401 32.7929 2.76802 34.7738 4.33135 35.6402L14.105 41.0793C15.6645 41.9457 17.6291 41.377 18.4884 39.8006L27.8002 22.785C28.1976 22.0598 28.3036 21.2124 28.103 20.4109V20.4147ZM23.0459 15.7772C22.3191 15.9222 21.6112 15.4451 21.4674 14.7123C21.3235 13.9795 21.7967 13.2657 22.5235 13.1168C23.2503 12.968 23.9581 13.4489 24.1057 14.1818C24.2534 14.9146 23.7764 15.6283 23.0496 15.7772H23.0459Z" fill="url(#paint2_radial_1_5466)"/>
<path opacity="0.32" d="M28.103 20.4147L26.1536 12.6894C25.7031 10.9031 23.8673 9.84959 22.1147 10.3725L14.2678 12.7046C13.4539 12.9451 12.765 13.5023 12.3562 14.2543L3.06328 31.2203C2.20401 32.7929 2.76802 34.7738 4.33135 35.6402L14.105 41.0793C15.6645 41.9457 17.6291 41.377 18.4884 39.8006L27.8002 22.785C28.1976 22.0598 28.3036 21.2124 28.103 20.4109V20.4147ZM23.0459 15.7772C22.3191 15.9222 21.6112 15.4451 21.4674 14.7123C21.3235 13.9795 21.7967 13.2657 22.5235 13.1168C23.2503 12.968 23.9581 13.4489 24.1057 14.1818C24.2534 14.9146 23.7764 15.6283 23.0496 15.7772H23.0459Z" fill="url(#paint3_radial_1_5466)"/>
<path opacity="0.5" d="M23.0269 10.8074C24.242 10.8074 25.3019 11.6395 25.6009 12.8265L27.5504 20.5519C27.7169 21.216 27.6299 21.9107 27.3005 22.5099L17.9887 39.5256C17.5193 40.3806 16.626 40.9111 15.657 40.9111C15.2103 40.9111 14.7674 40.7966 14.3737 40.5752L4.60011 35.1362C3.97932 34.7888 3.52887 34.2201 3.32825 33.5331C3.13141 32.8461 3.2109 32.1208 3.55537 31.4949L12.8407 14.525C13.1814 13.9029 13.7416 13.4487 14.4154 13.2502L22.2623 10.9181C22.5083 10.8456 22.762 10.8074 23.0156 10.8074M22.7733 16.3762C22.8982 16.3762 23.0231 16.3648 23.1481 16.3381C24.1814 16.1319 24.8552 15.1128 24.6508 14.0708C24.4729 13.17 23.6856 12.5174 22.7771 12.5174C22.6522 12.5174 22.5273 12.5288 22.4024 12.5555C21.369 12.7616 20.6952 13.7807 20.8996 14.8228C21.0775 15.7235 21.8648 16.3762 22.7733 16.3762ZM23.0156 10.2349C22.7128 10.2349 22.4061 10.2768 22.0995 10.3685L14.2526 12.7006C13.4388 12.941 12.7499 13.4983 12.341 14.2502L3.06328 31.2201C2.20401 32.7926 2.76802 34.7736 4.33135 35.64L14.105 41.0791C14.6009 41.3539 15.1346 41.4836 15.6607 41.4836C16.7963 41.4836 17.9016 40.8768 18.4884 39.8004L27.8002 22.7848C28.1976 22.0596 28.3036 21.2122 28.103 20.4107L26.1536 12.6853C25.7826 11.2082 24.4653 10.2349 23.0269 10.2349H23.0156ZM22.7733 15.8037C22.145 15.8037 21.5847 15.3571 21.456 14.7121C21.3122 13.9792 21.7854 13.2655 22.5121 13.1166C22.5992 13.0975 22.69 13.0899 22.7733 13.0899C23.4017 13.0899 23.9619 13.5365 24.0906 14.1815C24.2344 14.9144 23.7613 15.6281 23.0345 15.777C22.9474 15.7961 22.8566 15.8037 22.7733 15.8037Z" fill="url(#paint4_linear_1_5466)"/>
<path opacity="0.31" d="M7.74966 29.8403C7.29678 29.5858 6.72505 29.7497 6.47266 30.2063C6.22028 30.663 6.38282 31.2395 6.8357 31.494L16.2097 36.7615C16.6626 37.016 17.2343 36.8521 17.4867 36.3954C17.7391 35.9388 17.5765 35.3623 17.1237 35.1078L7.74966 29.8403Z" fill="white"/>
<path opacity="0.31" d="M9.65393 26.3935C9.20104 26.139 8.62931 26.3029 8.37693 26.7596C8.12455 27.2162 8.28709 27.7927 8.73997 28.0472L18.114 33.3147C18.5668 33.5692 19.1386 33.4053 19.391 32.9487C19.6433 32.492 19.4808 31.9155 19.0279 31.661L9.65393 26.3935Z" fill="white"/>
<path opacity="0.31" d="M11.5605 22.9418C11.1076 22.6874 10.5359 22.8512 10.2835 23.3079C10.0311 23.7646 10.1937 24.3411 10.6466 24.5956L20.0205 29.8631C20.4734 30.1176 21.0452 29.9537 21.2975 29.497C21.5499 29.0403 21.3874 28.4638 20.9345 28.2094L11.5605 22.9418Z" fill="white"/>
<path opacity="0.71" d="M24.3026 14.4072L27.539 18.3882L24.8477 14.0102L28.7919 10.7468L24.454 13.4606L21.2138 9.4834L23.9089 13.8575L19.9608 17.1248L24.3026 14.4072Z" fill="url(#paint5_radial_1_5466)"/>
</g>
<defs>
<filter id="filter0_d_1_5466" x="13.0556" y="2.13631" width="29.593" height="43.1478" filterUnits="userSpaceOnUse" color-interpolation-filters="sRGB">
<feFlood flood-opacity="0" result="BackgroundImageFix"/>
<feColorMatrix in="SourceAlpha" type="matrix" values="0 0 0 0 0 0 0 0 0 0 0 0 0 0 0 0 0 0 127 0" result="hardAlpha"/>
<feOffset dx="3.72"/>
<feGaussianBlur stdDeviation="2.79"/>
<feColorMatrix type="matrix" values="0 0 0 0 0 0 0 0 0 0 0 0 0 0 0 0 0 0 0.25 0"/>
<feBlend mode="normal" in2="BackgroundImageFix" result="effect1_dropShadow_1_5466"/>
<feBlend mode="normal" in="SourceGraphic" in2="effect1_dropShadow_1_5466" result="shape"/>
</filter>
<radialGradient id="paint0_radial_1_5466" cx="0" cy="0" r="1" gradientUnits="userSpaceOnUse" gradientTransform="translate(20.8498 10.8452) rotate(-31.572) scale(40.3023 40.455)">
<stop stop-color="#FF00FF"/>
<stop offset="1" stop-color="#6800FF"/>
</radialGradient>
<linearGradient id="paint1_linear_1_5466" x1="17.4534" y1="2.73791" x2="13.3402" y2="51.3922" gradientUnits="userSpaceOnUse">
<stop stop-color="#6800FF"/>
<stop offset="0.33" stop-color="#6500FC"/>
<stop offset="0.52" stop-color="#5F04F4"/>
<stop offset="0.67" stop-color="#5309E6"/>
<stop offset="0.81" stop-color="#4311D2"/>
<stop offset="0.93" stop-color="#2E1CB9"/>
<stop offset="1" stop-color="#1F24A6"/>
</linearGradient>
<radialGradient id="paint2_radial_1_5466" cx="0" cy="0" r="1" gradientUnits="userSpaceOnUse" gradientTransform="translate(15.3666 26.6546) rotate(-11.3112) scale(14.135 14.2439)">
<stop stop-color="white" stop-opacity="0"/>
<stop offset="0.37" stop-color="white" stop-opacity="0"/>
<stop offset="0.51" stop-color="white" stop-opacity="0.03"/>
<stop offset="0.6" stop-color="white" stop-opacity="0.08"/>
<stop offset="0.68" stop-color="white" stop-opacity="0.15"/>
<stop offset="0.75" stop-color="white" stop-opacity="0.23"/>
<stop offset="0.8" stop-color="white" stop-opacity="0.34"/>
<stop offset="0.86" stop-color="white" stop-opacity="0.47"/>
<stop offset="0.91" stop-color="white" stop-opacity="0.61"/>
<stop offset="0.95" stop-color="white" stop-opacity="0.78"/>
<stop offset="0.99" stop-color="white" stop-opacity="0.96"/>
<stop offset="1" stop-color="white"/>
</radialGradient>
<radialGradient id="paint3_radial_1_5466" cx="0" cy="0" r="1" gradientUnits="userSpaceOnUse" gradientTransform="translate(10.6368 15.7946) rotate(-11.3112) scale(21.8519 22.0202)">
<stop stop-color="white"/>
<stop offset="0.07" stop-color="white" stop-opacity="0.89"/>
<stop offset="0.27" stop-color="white" stop-opacity="0.63"/>
<stop offset="0.46" stop-color="white" stop-opacity="0.4"/>
<stop offset="0.63" stop-color="white" stop-opacity="0.23"/>
<stop offset="0.78" stop-color="white" stop-opacity="0.1"/>
<stop offset="0.91" stop-color="white" stop-opacity="0.03"/>
<stop offset="1" stop-color="white" stop-opacity="0"/>
</radialGradient>
<linearGradient id="paint4_linear_1_5466" x1="4.72124" y1="11.8227" x2="30.9616" y2="41.8174" gradientUnits="userSpaceOnUse">
<stop stop-color="white" stop-opacity="0"/>
<stop offset="0.05" stop-color="white" stop-opacity="0.02"/>
<stop offset="0.12" stop-color="white" stop-opacity="0.08"/>
<stop offset="0.18" stop-color="white" stop-opacity="0.17"/>
<stop offset="0.26" stop-color="white" stop-opacity="0.3"/>
<stop offset="0.33" stop-color="white" stop-opacity="0.47"/>
<stop offset="0.41" stop-color="white" stop-opacity="0.67"/>
<stop offset="0.48" stop-color="white" stop-opacity="0.91"/>
<stop offset="0.51" stop-color="white" stop-opacity="0.96"/>
<stop offset="0.53" stop-color="white" stop-opacity="0.78"/>
<stop offset="0.56" stop-color="white" stop-opacity="0.61"/>
<stop offset="0.58" stop-color="white" stop-opacity="0.47"/>
<stop offset="0.61" stop-color="white" stop-opacity="0.34"/>
<stop offset="0.64" stop-color="white" stop-opacity="0.23"/>
<stop offset="0.67" stop-color="white" stop-opacity="0.15"/>
<stop offset="0.71" stop-color="white" stop-opacity="0.08"/>
<stop offset="0.75" stop-color="white" stop-opacity="0.03"/>
<stop offset="0.82" stop-color="white" stop-opacity="0"/>
<stop offset="1" stop-color="white" stop-opacity="0"/>
</linearGradient>
<radialGradient id="paint5_radial_1_5466" cx="0" cy="0" r="1" gradientUnits="userSpaceOnUse" gradientTransform="translate(24.3559 14.0422) rotate(54.4156) scale(5.46175 5.44729)">
<stop stop-color="white"/>
<stop offset="0.09" stop-color="white" stop-opacity="0.84"/>
<stop offset="0.23" stop-color="white" stop-opacity="0.62"/>
<stop offset="0.36" stop-color="white" stop-opacity="0.43"/>
<stop offset="0.5" stop-color="white" stop-opacity="0.28"/>
<stop offset="0.63" stop-color="white" stop-opacity="0.15"/>
<stop offset="0.76" stop-color="white" stop-opacity="0.07"/>
<stop offset="0.89" stop-color="white" stop-opacity="0.02"/>
<stop offset="1" stop-color="white" stop-opacity="0"/>
</radialGradient>
<clipPath id="clip0_1_5466">
<rect width="47" height="47" fill="white" transform="matrix(1 0 0 -1 0 47.5752)"/>
</clipPath>
</defs>
</svg>
