<svg width="55" height="54" viewBox="0 0 55 54" fill="none" xmlns="http://www.w3.org/2000/svg">
<g clip-path="url(#clip0_1_5446)">
<g filter="url(#filter0_d_1_5446)">
<path d="M42.0076 22.101C42.0076 14.1744 35.2121 7.77345 26.9224 8.00976C19.3949 8.22533 13.1765 14.0376 12.7502 21.276C12.4487 26.396 14.9852 30.9604 18.9858 33.6551C20.5705 34.7205 21.505 36.4742 21.505 38.3356V39.9193C21.505 43.0368 24.1319 45.5657 27.3703 45.5657C30.6086 45.5657 33.2355 43.0368 33.2355 39.9193V38.3397C33.2355 36.441 34.2346 34.6957 35.8409 33.597C39.5745 31.0433 42.0119 26.8478 42.0119 22.101H42.0076Z" fill="url(#paint0_radial_1_5446)"/>
</g>
<path d="M37.3351 24.5263C37.3351 16.5997 30.5397 10.1987 22.25 10.435C14.7225 10.6506 8.50408 16.4629 8.07775 23.7013C7.77631 28.8213 10.3128 33.3857 14.3134 36.0804C15.8981 37.1458 16.8326 38.8995 16.8326 40.7609V42.3445C16.8326 45.4621 19.4595 47.991 22.6978 47.991C25.9362 47.991 28.5631 45.4621 28.5631 42.3445V40.765C28.5631 38.8663 29.5622 37.121 31.1684 36.0223C34.9021 33.4686 37.3394 29.2731 37.3394 24.5263H37.3351Z" fill="url(#paint1_radial_1_5446)"/>
<path opacity="0.35" d="M37.3351 24.5263C37.3351 16.5997 30.5397 10.1987 22.25 10.435C14.7225 10.6506 8.50408 16.4629 8.07775 23.7013C7.77631 28.8213 10.3128 33.3857 14.3134 36.0804C15.8981 37.1458 16.8326 38.8995 16.8326 40.7609V42.3445C16.8326 45.4621 19.4595 47.991 22.6978 47.991C25.9362 47.991 28.5631 45.4621 28.5631 42.3445V40.765C28.5631 38.8663 29.5622 37.121 31.1684 36.0223C34.9021 33.4686 37.3394 29.2731 37.3394 24.5263H37.3351Z" fill="url(#paint2_radial_1_5446)"/>
<path opacity="0.32" d="M37.3351 24.5263C37.3351 16.5997 30.5397 10.1987 22.25 10.435C14.7225 10.6506 8.50408 16.4629 8.07775 23.7013C7.77631 28.8213 10.3128 33.3857 14.3134 36.0804C15.8981 37.1458 16.8326 38.8995 16.8326 40.7609V42.3445C16.8326 45.4621 19.4595 47.991 22.6978 47.991C25.9362 47.991 28.5631 45.4621 28.5631 42.3445V40.765C28.5631 38.8663 29.5622 37.121 31.1684 36.0223C34.9021 33.4686 37.3394 29.2731 37.3394 24.5263H37.3351Z" fill="url(#paint3_radial_1_5446)"/>
<g opacity="0.31">
<path d="M23.7701 38.3188V27.9877L25.4797 26.2672C25.8888 25.8527 25.8759 25.1976 25.4453 24.7996C25.0147 24.4017 24.3343 24.4182 23.9251 24.8328L22.6763 26.089L21.3543 24.8162C20.9322 24.4099 20.2518 24.4099 19.8298 24.8162C19.4078 25.2225 19.4078 25.8775 19.8298 26.2838L21.6126 28.0001V38.3146H16.2512C16.501 38.8287 16.6776 39.3801 16.7594 39.9522H28.6191C28.7052 39.3801 28.8861 38.8329 29.1445 38.3146H23.7658L23.7701 38.3188Z" fill="white"/>
<path d="M16.8282 42.344C16.8282 42.6218 16.8541 42.8913 16.8971 43.1566H28.4899C28.5286 42.8913 28.5588 42.6218 28.5588 42.344V41.519H16.8326V42.344H16.8282Z" fill="white"/>
<path d="M18.5681 46.3534H26.8191C27.31 45.8849 27.7148 45.3294 28.0076 44.7158H17.3795C17.6767 45.3294 18.0771 45.8808 18.5681 46.3534Z" fill="white"/>
</g>
<path opacity="0.5" d="M22.6936 11.0525C30.4106 11.0525 36.6892 17.097 36.6892 24.5261C36.6892 28.8791 34.4844 32.9874 30.7895 35.5122C28.9852 36.7435 27.9086 38.7085 27.9086 40.7606V42.3402C27.9086 45.1095 25.5659 47.3648 22.6893 47.3648C19.8126 47.3648 17.47 45.1095 17.47 42.3402V40.7565C17.47 38.6836 16.4235 36.7435 14.6751 35.5661C10.6659 32.8672 8.43952 28.4396 8.71513 23.7342C9.12423 16.8316 15.0756 11.2598 22.2629 11.0567C22.405 11.0567 22.5471 11.0525 22.6893 11.0525M22.6893 10.4307C22.5428 10.4307 22.3921 10.4307 22.2457 10.439C14.7182 10.6545 8.49981 16.4668 8.07348 23.7052C7.77204 28.8252 10.3085 33.3896 14.3091 36.0843C15.8938 37.1497 16.8283 38.9034 16.8283 40.7648V42.3485C16.8283 45.466 19.4552 47.9949 22.6936 47.9949C25.9319 47.9949 28.5588 45.466 28.5588 42.3485V40.7689C28.5588 38.8702 29.5579 37.1249 31.1642 36.0263C34.8978 33.4725 37.3352 29.277 37.3352 24.5302C37.3352 16.7446 30.7809 10.4348 22.6936 10.4348L22.6893 10.4307Z" fill="url(#paint4_linear_1_5446)"/>
<path opacity="0.71" d="M29.812 13.3536L33.4939 17.6775L30.4321 12.9224L34.9236 9.37784L29.9842 12.3254L26.3023 8.00146L29.3641 12.7566L24.8769 16.3012L29.812 13.3536Z" fill="url(#paint5_radial_1_5446)"/>
</g>
<defs>
<filter id="filter0_d_1_5446" x="10.866" y="2.42342" width="40.4459" height="48.7225" filterUnits="userSpaceOnUse" color-interpolation-filters="sRGB">
<feFlood flood-opacity="0" result="BackgroundImageFix"/>
<feColorMatrix in="SourceAlpha" type="matrix" values="0 0 0 0 0 0 0 0 0 0 0 0 0 0 0 0 0 0 127 0" result="hardAlpha"/>
<feOffset dx="3.72"/>
<feGaussianBlur stdDeviation="2.79"/>
<feColorMatrix type="matrix" values="0 0 0 0 0 0 0 0 0 0 0 0 0 0 0 0 0 0 0.25 0"/>
<feBlend mode="normal" in2="BackgroundImageFix" result="effect1_dropShadow_1_5446"/>
<feBlend mode="normal" in="SourceGraphic" in2="effect1_dropShadow_1_5446" result="shape"/>
</filter>
<radialGradient id="paint0_radial_1_5446" cx="0" cy="0" r="1" gradientUnits="userSpaceOnUse" gradientTransform="translate(24.1103 10.5386) scale(31.7379 30.5539)">
<stop stop-color="#FFC700"/>
<stop offset="1" stop-color="#FF6A00"/>
</radialGradient>
<radialGradient id="paint1_radial_1_5446" cx="0" cy="0" r="1" gradientUnits="userSpaceOnUse" gradientTransform="translate(22.8417 28.8303) rotate(88.7847) scale(17.4537 15.2288)">
<stop stop-color="#6800FF"/>
<stop offset="0.33" stop-color="#6500FC"/>
<stop offset="0.52" stop-color="#5F04F4"/>
<stop offset="0.67" stop-color="#5309E6"/>
<stop offset="0.81" stop-color="#4311D2"/>
<stop offset="0.93" stop-color="#2E1CB9"/>
<stop offset="1" stop-color="#1F24A6"/>
</radialGradient>
<radialGradient id="paint2_radial_1_5446" cx="0" cy="0" r="1" gradientUnits="userSpaceOnUse" gradientTransform="translate(22.8417 28.8303) rotate(88.7847) scale(17.4537 15.2288)">
<stop stop-color="white" stop-opacity="0"/>
<stop offset="0.37" stop-color="white" stop-opacity="0"/>
<stop offset="0.51" stop-color="white" stop-opacity="0.03"/>
<stop offset="0.6" stop-color="white" stop-opacity="0.08"/>
<stop offset="0.68" stop-color="white" stop-opacity="0.15"/>
<stop offset="0.75" stop-color="white" stop-opacity="0.23"/>
<stop offset="0.8" stop-color="white" stop-opacity="0.34"/>
<stop offset="0.86" stop-color="white" stop-opacity="0.47"/>
<stop offset="0.91" stop-color="white" stop-opacity="0.61"/>
<stop offset="0.95" stop-color="white" stop-opacity="0.78"/>
<stop offset="0.99" stop-color="white" stop-opacity="0.96"/>
<stop offset="1" stop-color="white"/>
</radialGradient>
<radialGradient id="paint3_radial_1_5446" cx="0" cy="0" r="1" gradientUnits="userSpaceOnUse" gradientTransform="translate(19.4336 12.9639) scale(31.7379 30.5539)">
<stop stop-color="white"/>
<stop offset="0.07" stop-color="white" stop-opacity="0.89"/>
<stop offset="0.27" stop-color="white" stop-opacity="0.63"/>
<stop offset="0.46" stop-color="white" stop-opacity="0.4"/>
<stop offset="0.63" stop-color="white" stop-opacity="0.23"/>
<stop offset="0.78" stop-color="white" stop-opacity="0.1"/>
<stop offset="0.91" stop-color="white" stop-opacity="0.03"/>
<stop offset="1" stop-color="white" stop-opacity="0"/>
</radialGradient>
<linearGradient id="paint4_linear_1_5446" x1="14.3478" y1="9.57665" x2="34.9403" y2="49.3817" gradientUnits="userSpaceOnUse">
<stop stop-color="white" stop-opacity="0"/>
<stop offset="0.05" stop-color="white" stop-opacity="0.02"/>
<stop offset="0.12" stop-color="white" stop-opacity="0.08"/>
<stop offset="0.18" stop-color="white" stop-opacity="0.17"/>
<stop offset="0.26" stop-color="white" stop-opacity="0.3"/>
<stop offset="0.33" stop-color="white" stop-opacity="0.47"/>
<stop offset="0.41" stop-color="white" stop-opacity="0.67"/>
<stop offset="0.48" stop-color="white" stop-opacity="0.91"/>
<stop offset="0.51" stop-color="white" stop-opacity="0.96"/>
<stop offset="0.53" stop-color="white" stop-opacity="0.78"/>
<stop offset="0.56" stop-color="white" stop-opacity="0.61"/>
<stop offset="0.58" stop-color="white" stop-opacity="0.47"/>
<stop offset="0.61" stop-color="white" stop-opacity="0.34"/>
<stop offset="0.64" stop-color="white" stop-opacity="0.23"/>
<stop offset="0.67" stop-color="white" stop-opacity="0.15"/>
<stop offset="0.71" stop-color="white" stop-opacity="0.08"/>
<stop offset="0.75" stop-color="white" stop-opacity="0.03"/>
<stop offset="0.82" stop-color="white" stop-opacity="0"/>
<stop offset="1" stop-color="white" stop-opacity="0"/>
</linearGradient>
<radialGradient id="paint5_radial_1_5446" cx="0" cy="0" r="1" gradientUnits="userSpaceOnUse" gradientTransform="translate(29.8773 12.9504) rotate(53.1504) scale(6.029 6.09771)">
<stop stop-color="white"/>
<stop offset="0.09" stop-color="white" stop-opacity="0.84"/>
<stop offset="0.23" stop-color="white" stop-opacity="0.62"/>
<stop offset="0.36" stop-color="white" stop-opacity="0.43"/>
<stop offset="0.5" stop-color="white" stop-opacity="0.28"/>
<stop offset="0.63" stop-color="white" stop-opacity="0.15"/>
<stop offset="0.76" stop-color="white" stop-opacity="0.07"/>
<stop offset="0.89" stop-color="white" stop-opacity="0.02"/>
<stop offset="1" stop-color="white" stop-opacity="0"/>
</radialGradient>
<clipPath id="clip0_1_5446">
<rect width="54" height="53" fill="white" transform="matrix(1 0 0 -1 0.5 53.5752)"/>
</clipPath>
</defs>
</svg>
