<svg width="47" height="46" viewBox="0 0 47 46" fill="none" xmlns="http://www.w3.org/2000/svg">
<g clip-path="url(#clip0_1_5488)">
<g filter="url(#filter0_d_1_5488)">
<path d="M12.4548 11.7437H35.9236C37.4036 11.7437 38.6082 12.9215 38.6082 14.3775V33.5752C38.6082 35.1625 36.577 35.8692 35.5575 34.6411L30.9913 29.1378H12.4548C10.9747 29.1378 9.7702 27.9599 9.7702 26.504V14.3775C9.7702 12.9254 10.9708 11.7437 12.4548 11.7437Z" fill="url(#paint0_radial_1_5488)"/>
</g>
<path d="M31.6014 14.6015H7.46347C5.75508 14.6015 4.37341 15.9571 4.37341 17.6331V40.4727C4.37341 42.2994 6.71162 43.1142 7.8886 41.6969L13.1437 35.3594H31.6014C33.3098 35.3594 34.6915 34.0039 34.6915 32.3278V17.6293C34.6915 15.9532 33.3098 14.5977 31.6014 14.5977V14.6015Z" fill="url(#paint1_radial_1_5488)"/>
<path opacity="0.35" d="M31.6014 14.6015H7.46347C5.75508 14.6015 4.37341 15.9571 4.37341 17.6331V40.4727C4.37341 42.2994 6.71162 43.1142 7.8886 41.6969L13.1437 35.3594H31.6014C33.3098 35.3594 34.6915 34.0039 34.6915 32.3278V17.6293C34.6915 15.9532 33.3098 14.5977 31.6014 14.5977V14.6015Z" fill="url(#paint2_radial_1_5488)"/>
<path opacity="0.32" d="M31.6014 14.6015H7.46347C5.75508 14.6015 4.37341 15.9571 4.37341 17.6331V40.4727C4.37341 42.2994 6.71162 43.1142 7.8886 41.6969L13.1437 35.3594H31.6014C33.3098 35.3594 34.6915 34.0039 34.6915 32.3278V17.6293C34.6915 15.9532 33.3098 14.5977 31.6014 14.5977V14.6015Z" fill="url(#paint3_radial_1_5488)"/>
<path opacity="0.31" d="M12.7619 26.2608C13.538 26.2608 14.1671 25.6436 14.1671 24.8821C14.1671 24.1207 13.538 23.5034 12.7619 23.5034C11.9857 23.5034 11.3566 24.1207 11.3566 24.8821C11.3566 25.6436 11.9857 26.2608 12.7619 26.2608Z" fill="white"/>
<path opacity="0.31" d="M19.3829 26.2608C20.159 26.2608 20.7881 25.6436 20.7881 24.8821C20.7881 24.1207 20.159 23.5034 19.3829 23.5034C18.6067 23.5034 17.9776 24.1207 17.9776 24.8821C17.9776 25.6436 18.6067 26.2608 19.3829 26.2608Z" fill="white"/>
<path opacity="0.31" d="M26.0039 26.2608C26.78 26.2608 27.4092 25.6436 27.4092 24.8821C27.4092 24.1207 26.78 23.5034 26.0039 23.5034C25.2277 23.5034 24.5986 24.1207 24.5986 24.8821C24.5986 25.6436 25.2277 26.2608 26.0039 26.2608Z" fill="white"/>
<path opacity="0.5" d="M31.6014 14.6016H7.46347C5.75508 14.6016 4.37341 15.961 4.37341 17.6332V40.4727C4.37341 41.6583 5.3575 42.4191 6.36915 42.4191C6.91631 42.4191 7.47134 42.1951 7.88466 41.7008L13.1397 35.3634H31.5975C33.3059 35.3634 34.6875 34.0039 34.6875 32.3317V17.6332C34.6875 15.9571 33.3059 14.6016 31.5975 14.6016H31.6014ZM34.0105 32.3317C34.0105 33.6332 32.9319 34.6952 31.6014 34.6952H12.8209L12.6162 34.9424L7.36112 41.2798C7.03834 41.6699 6.6447 41.751 6.37309 41.751C5.72752 41.751 5.05834 41.2721 5.05834 40.4766V17.637C5.05834 16.3356 6.13691 15.2735 7.46741 15.2735H31.6053C32.9319 15.2735 34.0144 16.3317 34.0144 17.637V32.3356L34.0105 32.3317Z" fill="url(#paint4_linear_1_5488)"/>
<path opacity="0.71" d="M29.0979 15.7289L33.975 19.95L29.7041 15.1342L34.0105 10.3492L29.0979 14.5394L24.2246 10.3145L28.4917 15.1303L24.1892 19.9152L29.0979 15.7289Z" fill="url(#paint5_radial_1_5488)"/>
</g>
<defs>
<filter id="filter0_d_1_5488" x="8.0302" y="6.52365" width="39.278" height="33.961" filterUnits="userSpaceOnUse" color-interpolation-filters="sRGB">
<feFlood flood-opacity="0" result="BackgroundImageFix"/>
<feColorMatrix in="SourceAlpha" type="matrix" values="0 0 0 0 0 0 0 0 0 0 0 0 0 0 0 0 0 0 127 0" result="hardAlpha"/>
<feOffset dx="3.48"/>
<feGaussianBlur stdDeviation="2.61"/>
<feColorMatrix type="matrix" values="0 0 0 0 0 0 0 0 0 0 0 0 0 0 0 0 0 0 0.33 0"/>
<feBlend mode="normal" in2="BackgroundImageFix" result="effect1_dropShadow_1_5488"/>
<feBlend mode="normal" in="SourceGraphic" in2="effect1_dropShadow_1_5488" result="shape"/>
</filter>
<radialGradient id="paint0_radial_1_5488" cx="0" cy="0" r="1" gradientUnits="userSpaceOnUse" gradientTransform="translate(6.46757 -3.56508) rotate(-180) scale(52.4091 51.4179)">
<stop stop-color="#45FF00"/>
<stop offset="1" stop-color="#338731"/>
</radialGradient>
<radialGradient id="paint1_radial_1_5488" cx="0" cy="0" r="1" gradientUnits="userSpaceOnUse" gradientTransform="translate(13.6948 42.6817) scale(27.5665 27.0452)">
<stop stop-color="#6800FF"/>
<stop offset="0.33" stop-color="#6500FC"/>
<stop offset="0.52" stop-color="#5F04F4"/>
<stop offset="0.67" stop-color="#5309E6"/>
<stop offset="0.81" stop-color="#4311D2"/>
<stop offset="0.93" stop-color="#2E1CB9"/>
<stop offset="1" stop-color="#1F24A6"/>
</radialGradient>
<radialGradient id="paint2_radial_1_5488" cx="0" cy="0" r="1" gradientUnits="userSpaceOnUse" gradientTransform="translate(19.3632 27.2764) scale(19.2844 18.9196)">
<stop stop-color="white" stop-opacity="0"/>
<stop offset="0.37" stop-color="white" stop-opacity="0"/>
<stop offset="0.51" stop-color="white" stop-opacity="0.03"/>
<stop offset="0.6" stop-color="white" stop-opacity="0.08"/>
<stop offset="0.68" stop-color="white" stop-opacity="0.15"/>
<stop offset="0.75" stop-color="white" stop-opacity="0.23"/>
<stop offset="0.8" stop-color="white" stop-opacity="0.34"/>
<stop offset="0.86" stop-color="white" stop-opacity="0.47"/>
<stop offset="0.91" stop-color="white" stop-opacity="0.61"/>
<stop offset="0.95" stop-color="white" stop-opacity="0.78"/>
<stop offset="0.99" stop-color="white" stop-opacity="0.96"/>
<stop offset="1" stop-color="white"/>
</radialGradient>
<radialGradient id="paint3_radial_1_5488" cx="0" cy="0" r="1" gradientUnits="userSpaceOnUse" gradientTransform="translate(21.9179 13.6515) scale(23.8388 23.3879)">
<stop stop-color="white"/>
<stop offset="0.07" stop-color="white" stop-opacity="0.89"/>
<stop offset="0.27" stop-color="white" stop-opacity="0.63"/>
<stop offset="0.46" stop-color="white" stop-opacity="0.4"/>
<stop offset="0.63" stop-color="white" stop-opacity="0.23"/>
<stop offset="0.78" stop-color="white" stop-opacity="0.1"/>
<stop offset="0.91" stop-color="white" stop-opacity="0.03"/>
<stop offset="1" stop-color="white" stop-opacity="0"/>
</radialGradient>
<linearGradient id="paint4_linear_1_5488" x1="6.01094" y1="19.344" x2="33.6183" y2="39.3447" gradientUnits="userSpaceOnUse">
<stop stop-color="white" stop-opacity="0"/>
<stop offset="0.05" stop-color="white" stop-opacity="0.02"/>
<stop offset="0.12" stop-color="white" stop-opacity="0.08"/>
<stop offset="0.18" stop-color="white" stop-opacity="0.17"/>
<stop offset="0.26" stop-color="white" stop-opacity="0.3"/>
<stop offset="0.33" stop-color="white" stop-opacity="0.47"/>
<stop offset="0.41" stop-color="white" stop-opacity="0.67"/>
<stop offset="0.48" stop-color="white" stop-opacity="0.91"/>
<stop offset="0.51" stop-color="white" stop-opacity="0.96"/>
<stop offset="0.53" stop-color="white" stop-opacity="0.78"/>
<stop offset="0.56" stop-color="white" stop-opacity="0.61"/>
<stop offset="0.58" stop-color="white" stop-opacity="0.47"/>
<stop offset="0.61" stop-color="white" stop-opacity="0.34"/>
<stop offset="0.64" stop-color="white" stop-opacity="0.23"/>
<stop offset="0.67" stop-color="white" stop-opacity="0.15"/>
<stop offset="0.71" stop-color="white" stop-opacity="0.08"/>
<stop offset="0.75" stop-color="white" stop-opacity="0.03"/>
<stop offset="0.82" stop-color="white" stop-opacity="0"/>
<stop offset="1" stop-color="white" stop-opacity="0"/>
</linearGradient>
<radialGradient id="paint5_radial_1_5488" cx="0" cy="0" r="1" gradientUnits="userSpaceOnUse" gradientTransform="translate(29.0992 15.2722) rotate(44.453) scale(6.85504 6.85379)">
<stop stop-color="white"/>
<stop offset="0.09" stop-color="white" stop-opacity="0.84"/>
<stop offset="0.23" stop-color="white" stop-opacity="0.62"/>
<stop offset="0.36" stop-color="white" stop-opacity="0.43"/>
<stop offset="0.5" stop-color="white" stop-opacity="0.28"/>
<stop offset="0.63" stop-color="white" stop-opacity="0.15"/>
<stop offset="0.76" stop-color="white" stop-opacity="0.07"/>
<stop offset="0.89" stop-color="white" stop-opacity="0.02"/>
<stop offset="1" stop-color="white" stop-opacity="0"/>
</radialGradient>
<clipPath id="clip0_1_5488">
<rect width="46" height="45" fill="white" transform="matrix(1 0 0 -1 0.5 45.5752)"/>
</clipPath>
</defs>
</svg>
