<svg width="54" height="55" viewBox="0 0 54 55" fill="none" xmlns="http://www.w3.org/2000/svg">
<g clip-path="url(#clip0_1_5429)">
<g filter="url(#filter0_d_1_5429)">
<path d="M32.1381 27.7074C34.6192 26.1912 36.2747 23.4572 36.2747 20.336C36.2747 15.5696 32.416 11.7065 27.6551 11.7065C22.8942 11.7065 19.0355 15.5696 19.0355 20.336C19.0355 23.2354 20.4654 25.796 22.6525 27.3606C17.9762 29.1187 14.6452 33.6351 14.6452 38.9297C14.6452 45.7527 39.3278 45.7527 39.3278 38.9297C39.3278 33.9496 36.3834 29.6631 32.1462 27.7074H32.1381Z" fill="url(#paint0_radial_1_5429)"/>
</g>
<path d="M28.6661 30.8566C31.5017 29.1266 33.3908 26.0015 33.3908 22.4328C33.3908 16.9849 28.9803 12.5693 23.5387 12.5693C18.0971 12.5693 13.6866 16.9849 13.6866 22.4328C13.6866 25.7434 15.3179 28.671 17.8192 30.4614C12.4742 32.4696 8.66791 37.6271 8.66791 43.6798C8.66791 51.4746 36.8708 51.4746 36.8708 43.6798C36.8708 37.99 33.5076 33.0906 28.6621 30.8566H28.6661Z" fill="url(#paint1_radial_1_5429)"/>
<path opacity="0.35" d="M28.6661 30.8566C31.5017 29.1266 33.3908 26.0015 33.3908 22.4328C33.3908 16.9849 28.9803 12.5693 23.5387 12.5693C18.0971 12.5693 13.6866 16.9849 13.6866 22.4328C13.6866 25.7434 15.3179 28.671 17.8192 30.4614C12.4742 32.4696 8.66791 37.6271 8.66791 43.6798C8.66791 51.4746 36.8708 51.4746 36.8708 43.6798C36.8708 37.99 33.5076 33.0906 28.6621 30.8566H28.6661Z" fill="url(#paint2_radial_1_5429)"/>
<path opacity="0.32" d="M28.6661 30.8566C31.5017 29.1266 33.3908 26.0015 33.3908 22.4328C33.3908 16.9849 28.9803 12.5693 23.5387 12.5693C18.0971 12.5693 13.6866 16.9849 13.6866 22.4328C13.6866 25.7434 15.3179 28.671 17.8192 30.4614C12.4742 32.4696 8.66791 37.6271 8.66791 43.6798C8.66791 51.4746 36.8708 51.4746 36.8708 43.6798C36.8708 37.99 33.5076 33.0906 28.6621 30.8566H28.6661Z" fill="url(#paint3_radial_1_5429)"/>
<path opacity="0.5" d="M23.5427 13.1742C28.6419 13.1742 32.7906 17.3276 32.7906 22.4328C32.7906 25.687 31.1311 28.6427 28.3519 30.3404C28.1626 30.4574 28.0499 30.667 28.0619 30.8929C28.074 31.1187 28.211 31.3122 28.4124 31.409C33.1853 33.6108 36.2666 38.4296 36.2666 43.6839C36.2666 47.1276 29.4757 48.9261 22.7694 48.9261C16.063 48.9261 9.27208 47.1236 9.27208 43.6839C9.27208 38.0828 12.7924 32.9978 18.0286 31.03C18.238 30.9534 18.3871 30.7638 18.4153 30.542C18.4435 30.3203 18.3508 30.1025 18.1655 29.9694C15.7368 28.2314 14.2867 25.4127 14.2867 22.4328C14.2867 17.3276 18.4354 13.1742 23.5347 13.1742M23.5347 12.5693C18.093 12.5693 13.6826 16.9849 13.6826 22.4328C13.6826 25.7434 15.3138 28.671 17.8151 30.4614C12.4702 32.4696 8.66388 37.6311 8.66388 43.6798C8.66388 47.5792 15.7126 49.5269 22.7653 49.5269C29.8181 49.5269 36.8668 47.5792 36.8668 43.6798C36.8668 37.99 33.5035 33.0906 28.6581 30.8566C31.4937 29.1266 33.3827 26.0015 33.3827 22.4328C33.3827 16.9849 28.9722 12.5693 23.5306 12.5693H23.5347Z" fill="url(#paint4_linear_1_5429)"/>
<path opacity="0.31" d="M24.0623 34.9009L26.2615 32.6992L24.4248 30.8604H21.122L19.2853 32.6992L21.4644 34.8848L18.9671 43.853L22.7734 47.9782L26.5797 43.853L24.0623 34.9009Z" fill="white"/>
<path opacity="0.71" d="M27.8525 14.4402L31.3003 18.646L28.4325 14.0208L32.6335 10.573L28.0136 13.4401L24.5698 9.23828L27.4336 13.8595L23.2366 17.3113L27.8525 14.4402Z" fill="url(#paint5_radial_1_5429)"/>
</g>
<defs>
<filter id="filter0_d_1_5429" x="12.7852" y="6.12654" width="35.8426" height="43.5003" filterUnits="userSpaceOnUse" color-interpolation-filters="sRGB">
<feFlood flood-opacity="0" result="BackgroundImageFix"/>
<feColorMatrix in="SourceAlpha" type="matrix" values="0 0 0 0 0 0 0 0 0 0 0 0 0 0 0 0 0 0 127 0" result="hardAlpha"/>
<feOffset dx="3.72"/>
<feGaussianBlur stdDeviation="2.79"/>
<feColorMatrix type="matrix" values="0 0 0 0 0 0 0 0 0 0 0 0 0 0 0 0 0 0 0.25 0"/>
<feBlend mode="normal" in2="BackgroundImageFix" result="effect1_dropShadow_1_5429"/>
<feBlend mode="normal" in="SourceGraphic" in2="effect1_dropShadow_1_5429" result="shape"/>
</filter>
<radialGradient id="paint0_radial_1_5429" cx="0" cy="0" r="1" gradientUnits="userSpaceOnUse" gradientTransform="translate(30.7606 13.747) scale(29.5643 29.5983)">
<stop stop-color="#00C4FF"/>
<stop offset="1" stop-color="#1942B7"/>
</radialGradient>
<radialGradient id="paint1_radial_1_5429" cx="0" cy="0" r="1" gradientUnits="userSpaceOnUse" gradientTransform="translate(24.457 30.2638) scale(24.7269 24.7553)">
<stop stop-color="#6800FF"/>
<stop offset="0.33" stop-color="#6500FC"/>
<stop offset="0.52" stop-color="#5F04F4"/>
<stop offset="0.67" stop-color="#5309E6"/>
<stop offset="0.81" stop-color="#4311D2"/>
<stop offset="0.93" stop-color="#2E1CB9"/>
<stop offset="1" stop-color="#1F24A6"/>
</radialGradient>
<radialGradient id="paint2_radial_1_5429" cx="0" cy="0" r="1" gradientUnits="userSpaceOnUse" gradientTransform="translate(22.5478 31.2195) scale(17.9883 18.009)">
<stop stop-color="white" stop-opacity="0"/>
<stop offset="0.37" stop-color="white" stop-opacity="0"/>
<stop offset="0.51" stop-color="white" stop-opacity="0.03"/>
<stop offset="0.6" stop-color="white" stop-opacity="0.08"/>
<stop offset="0.68" stop-color="white" stop-opacity="0.15"/>
<stop offset="0.75" stop-color="white" stop-opacity="0.23"/>
<stop offset="0.8" stop-color="white" stop-opacity="0.34"/>
<stop offset="0.86" stop-color="white" stop-opacity="0.47"/>
<stop offset="0.91" stop-color="white" stop-opacity="0.61"/>
<stop offset="0.95" stop-color="white" stop-opacity="0.78"/>
<stop offset="0.99" stop-color="white" stop-opacity="0.96"/>
<stop offset="1" stop-color="white"/>
</radialGradient>
<radialGradient id="paint3_radial_1_5429" cx="0" cy="0" r="1" gradientUnits="userSpaceOnUse" gradientTransform="translate(20.9568 16.2308) scale(35.8155 35.8567)">
<stop stop-color="white"/>
<stop offset="0.07" stop-color="white" stop-opacity="0.89"/>
<stop offset="0.27" stop-color="white" stop-opacity="0.63"/>
<stop offset="0.46" stop-color="white" stop-opacity="0.4"/>
<stop offset="0.63" stop-color="white" stop-opacity="0.23"/>
<stop offset="0.78" stop-color="white" stop-opacity="0.1"/>
<stop offset="0.91" stop-color="white" stop-opacity="0.03"/>
<stop offset="1" stop-color="white" stop-opacity="0"/>
</radialGradient>
<linearGradient id="paint4_linear_1_5429" x1="14.037" y1="16.3639" x2="29.332" y2="51.2358" gradientUnits="userSpaceOnUse">
<stop stop-color="white" stop-opacity="0"/>
<stop offset="0.05" stop-color="white" stop-opacity="0.02"/>
<stop offset="0.12" stop-color="white" stop-opacity="0.08"/>
<stop offset="0.18" stop-color="white" stop-opacity="0.17"/>
<stop offset="0.26" stop-color="white" stop-opacity="0.3"/>
<stop offset="0.33" stop-color="white" stop-opacity="0.47"/>
<stop offset="0.41" stop-color="white" stop-opacity="0.67"/>
<stop offset="0.48" stop-color="white" stop-opacity="0.91"/>
<stop offset="0.51" stop-color="white" stop-opacity="0.96"/>
<stop offset="0.53" stop-color="white" stop-opacity="0.78"/>
<stop offset="0.56" stop-color="white" stop-opacity="0.61"/>
<stop offset="0.58" stop-color="white" stop-opacity="0.47"/>
<stop offset="0.61" stop-color="white" stop-opacity="0.34"/>
<stop offset="0.64" stop-color="white" stop-opacity="0.23"/>
<stop offset="0.67" stop-color="white" stop-opacity="0.15"/>
<stop offset="0.71" stop-color="white" stop-opacity="0.08"/>
<stop offset="0.75" stop-color="white" stop-opacity="0.03"/>
<stop offset="0.82" stop-color="white" stop-opacity="0"/>
<stop offset="1" stop-color="white" stop-opacity="0"/>
</linearGradient>
<radialGradient id="paint5_radial_1_5429" cx="0" cy="0" r="1" gradientUnits="userSpaceOnUse" gradientTransform="translate(27.9116 14.0514) rotate(54.2212) scale(5.78432 5.78222)">
<stop stop-color="white"/>
<stop offset="0.09" stop-color="white" stop-opacity="0.84"/>
<stop offset="0.23" stop-color="white" stop-opacity="0.62"/>
<stop offset="0.36" stop-color="white" stop-opacity="0.43"/>
<stop offset="0.5" stop-color="white" stop-opacity="0.28"/>
<stop offset="0.63" stop-color="white" stop-opacity="0.15"/>
<stop offset="0.76" stop-color="white" stop-opacity="0.07"/>
<stop offset="0.89" stop-color="white" stop-opacity="0.02"/>
<stop offset="1" stop-color="white" stop-opacity="0"/>
</radialGradient>
<clipPath id="clip0_1_5429">
<rect width="54" height="54" fill="white" transform="matrix(1 0 0 -1 0 54.5752)"/>
</clipPath>
</defs>
</svg>
