<svg width="30" height="31" viewBox="0 0 30 31" fill="none" xmlns="http://www.w3.org/2000/svg">
<g clip-path="url(#clip0_1_5516)">
<g filter="url(#filter0_d_1_5516)">
<path d="M24.1023 11.5352C24.1023 7.38043 20.7383 4.01221 16.5887 4.01221C12.439 4.01221 9.07501 7.38043 9.07501 11.5352C9.07501 13.9862 10.2448 16.1634 12.0573 17.5369V21.2182C12.0573 21.7582 12.6927 22.1281 13.2788 21.9308L16.1602 20.264C16.5025 20.0667 16.9507 20.0667 17.293 20.264L20.1743 21.9308C20.7605 22.1281 21.3958 21.7582 21.3958 21.2182V17.3149C23.0483 15.9341 24.0999 13.858 24.0999 11.5352H24.1023Z" fill="url(#paint0_radial_1_5516)"/>
</g>
<path d="M21.3909 14.1046C21.3909 9.26435 17.4703 5.33887 12.636 5.33887C7.80178 5.33887 3.87872 9.26188 3.87872 14.1046C3.87872 16.96 5.24305 19.4948 7.35357 21.0975V25.3879C7.35357 26.0167 8.09238 26.4482 8.77701 26.2189L12.1361 24.2783C12.5351 24.049 13.0572 24.049 13.4561 24.2783L16.8152 26.2189C17.4998 26.4482 18.2386 26.0167 18.2386 25.3879V20.8411C20.1645 19.2334 21.3909 16.8145 21.3909 14.1071V14.1046Z" fill="url(#paint1_radial_1_5516)"/>
<path opacity="0.35" d="M21.3909 14.1046C21.3909 9.26435 17.4703 5.33887 12.636 5.33887C7.80178 5.33887 3.87872 9.26188 3.87872 14.1046C3.87872 16.96 5.24305 19.4948 7.35357 21.0975V25.3879C7.35357 26.0167 8.09238 26.4482 8.77701 26.2189L12.1361 24.2783C12.5351 24.049 13.0572 24.049 13.4561 24.2783L16.8152 26.2189C17.4998 26.4482 18.2386 26.0167 18.2386 25.3879V20.8411C20.1645 19.2334 21.3909 16.8145 21.3909 14.1071V14.1046Z" fill="url(#paint2_radial_1_5516)"/>
<path opacity="0.32" d="M21.3909 14.1046C21.3909 9.26435 17.4703 5.33887 12.636 5.33887C7.80178 5.33887 3.87872 9.26188 3.87872 14.1046C3.87872 16.96 5.24305 19.4948 7.35357 21.0975V25.3879C7.35357 26.0167 8.09238 26.4482 8.77701 26.2189L12.1361 24.2783C12.5351 24.049 13.0572 24.049 13.4561 24.2783L16.8152 26.2189C17.4998 26.4482 18.2386 26.0167 18.2386 25.3879V20.8411C20.1645 19.2334 21.3909 16.8145 21.3909 14.1071V14.1046Z" fill="url(#paint3_radial_1_5516)"/>
<path opacity="0.31" d="M12.6336 7.51855C9.0011 7.51855 6.05573 10.4676 6.05573 14.1046C6.05573 17.7416 9.0011 20.6906 12.6336 20.6906C16.266 20.6906 19.2114 17.7416 19.2114 14.1046C19.2114 10.4676 16.266 7.51855 12.6336 7.51855ZM16.3867 13.4092L14.8032 14.5607C14.6357 14.684 14.5643 14.8986 14.6283 15.0983L15.2317 16.9599C15.3745 17.4013 14.8697 17.7687 14.4929 17.4975L12.9094 16.346C12.7419 16.2227 12.5129 16.2227 12.3454 16.346L10.7619 17.4975C10.3851 17.7712 9.88028 17.4038 10.0231 16.9599L10.6265 15.0983C10.6905 14.901 10.6215 14.684 10.4516 14.5607L8.86811 13.4092C8.49132 13.1355 8.68587 12.5413 9.14886 12.5413H11.1042C11.3111 12.5413 11.4958 12.4081 11.5598 12.2084L12.1632 10.3468C12.306 9.9054 12.9315 9.9054 13.0744 10.3468L13.6777 12.2084C13.7418 12.4057 13.9265 12.5413 14.1333 12.5413H16.0887C16.5542 12.5413 16.7462 13.1355 16.3695 13.4092H16.3867Z" fill="white"/>
<path opacity="0.31" d="M12.6533 22.8702C10.6708 22.8702 8.84105 22.2093 7.37329 21.0948V25.3852C7.37329 26.014 8.1121 26.4455 8.79672 26.2162L12.1558 24.2756C12.5548 24.0463 13.0769 24.0463 13.4758 24.2756L16.8349 26.2162C17.5196 26.4455 18.2584 26.014 18.2584 25.3852V20.8384C16.7389 22.1058 14.786 22.8702 12.6558 22.8702H12.6533Z" fill="white"/>
<path opacity="0.5" d="M12.6336 5.70629C17.2585 5.70629 21.019 9.47396 21.019 14.1022C21.019 16.6 19.9182 18.9498 17.9997 20.5526L17.8668 20.6635V25.383C17.8668 25.6666 17.5589 25.9057 17.1944 25.9057C17.1156 25.9057 17.0368 25.8934 16.963 25.8737L13.6408 23.9529C13.3896 23.8074 13.0965 23.7309 12.7961 23.7309C12.4956 23.7309 12.2026 23.8074 11.9514 23.9529L8.62922 25.8737C8.55288 25.8959 8.47654 25.9057 8.39773 25.9057C8.03325 25.9057 7.72542 25.6666 7.72542 25.383V20.9101L7.58012 20.7992C5.46467 19.194 4.25057 16.7553 4.25057 14.1022C4.25057 9.47149 8.01355 5.70629 12.636 5.70629M12.636 5.33643C7.80176 5.33643 3.88116 9.26191 3.88116 14.1022C3.88116 16.9575 5.24549 19.4923 7.35602 21.0951V25.3855C7.35602 25.8983 7.84609 26.2781 8.39773 26.2781C8.52333 26.2781 8.65139 26.2583 8.77945 26.2164L12.1386 24.2759C12.338 24.16 12.5671 24.1033 12.7986 24.1033C13.03 24.1033 13.2591 24.16 13.4586 24.2759L16.8177 26.2164C16.9457 26.2583 17.0738 26.2781 17.1994 26.2781C17.751 26.2781 18.2411 25.8959 18.2411 25.3855V20.8386C20.1669 19.2309 21.3933 16.812 21.3933 14.1046C21.3933 9.26437 17.4727 5.33889 12.6385 5.33889L12.636 5.33643Z" fill="url(#paint4_linear_1_5516)"/>
<path opacity="0.71" d="M17.2782 7.30926L19.3863 9.87858L17.6353 7.05283L20.2014 4.94461L17.3792 6.69776L15.2711 4.12598L17.0246 6.9542L14.456 9.06242L17.2782 7.30926Z" fill="url(#paint5_radial_1_5516)"/>
</g>
<defs>
<filter id="filter0_d_1_5516" x="7.33501" y="-1.18779" width="25.4273" height="28.3722" filterUnits="userSpaceOnUse" color-interpolation-filters="sRGB">
<feFlood flood-opacity="0" result="BackgroundImageFix"/>
<feColorMatrix in="SourceAlpha" type="matrix" values="0 0 0 0 0 0 0 0 0 0 0 0 0 0 0 0 0 0 127 0" result="hardAlpha"/>
<feOffset dx="3.46"/>
<feGaussianBlur stdDeviation="2.6"/>
<feColorMatrix type="matrix" values="0 0 0 0 0 0 0 0 0 0 0 0 0 0 0 0 0 0 0.33 0"/>
<feBlend mode="normal" in2="BackgroundImageFix" result="effect1_dropShadow_1_5516"/>
<feBlend mode="normal" in="SourceGraphic" in2="effect1_dropShadow_1_5516" result="shape"/>
</filter>
<radialGradient id="paint0_radial_1_5516" cx="0" cy="0" r="1" gradientUnits="userSpaceOnUse" gradientTransform="translate(17.4728 4.05659) scale(10.5649 10.5781)">
<stop stop-color="#FFC700"/>
<stop offset="1" stop-color="#FF6A00"/>
</radialGradient>
<radialGradient id="paint1_radial_1_5516" cx="0" cy="0" r="1" gradientUnits="userSpaceOnUse" gradientTransform="translate(13.9216 10.0756) scale(19.7187 19.7433)">
<stop stop-color="#6800FF"/>
<stop offset="0.33" stop-color="#6500FC"/>
<stop offset="0.52" stop-color="#5F04F4"/>
<stop offset="0.67" stop-color="#5309E6"/>
<stop offset="0.81" stop-color="#4311D2"/>
<stop offset="0.93" stop-color="#2E1CB9"/>
<stop offset="1" stop-color="#1F24A6"/>
</radialGradient>
<radialGradient id="paint2_radial_1_5516" cx="0" cy="0" r="1" gradientUnits="userSpaceOnUse" gradientTransform="translate(12.8552 15.6235) scale(11.6337 11.6482)">
<stop stop-color="white" stop-opacity="0"/>
<stop offset="0.37" stop-color="white" stop-opacity="0"/>
<stop offset="0.51" stop-color="white" stop-opacity="0.03"/>
<stop offset="0.6" stop-color="white" stop-opacity="0.08"/>
<stop offset="0.68" stop-color="white" stop-opacity="0.15"/>
<stop offset="0.75" stop-color="white" stop-opacity="0.23"/>
<stop offset="0.8" stop-color="white" stop-opacity="0.34"/>
<stop offset="0.86" stop-color="white" stop-opacity="0.47"/>
<stop offset="0.91" stop-color="white" stop-opacity="0.61"/>
<stop offset="0.95" stop-color="white" stop-opacity="0.78"/>
<stop offset="0.99" stop-color="white" stop-opacity="0.96"/>
<stop offset="1" stop-color="white"/>
</radialGradient>
<radialGradient id="paint3_radial_1_5516" cx="0" cy="0" r="1" gradientUnits="userSpaceOnUse" gradientTransform="translate(13.6654 5.39065) scale(12.3085 12.3238)">
<stop stop-color="white"/>
<stop offset="0.07" stop-color="white" stop-opacity="0.89"/>
<stop offset="0.27" stop-color="white" stop-opacity="0.63"/>
<stop offset="0.46" stop-color="white" stop-opacity="0.4"/>
<stop offset="0.63" stop-color="white" stop-opacity="0.23"/>
<stop offset="0.78" stop-color="white" stop-opacity="0.1"/>
<stop offset="0.91" stop-color="white" stop-opacity="0.03"/>
<stop offset="1" stop-color="white" stop-opacity="0"/>
</radialGradient>
<linearGradient id="paint4_linear_1_5516" x1="6.70094" y1="7.66903" x2="19.7797" y2="26.0383" gradientUnits="userSpaceOnUse">
<stop stop-color="white" stop-opacity="0"/>
<stop offset="0.05" stop-color="white" stop-opacity="0.02"/>
<stop offset="0.12" stop-color="white" stop-opacity="0.08"/>
<stop offset="0.18" stop-color="white" stop-opacity="0.17"/>
<stop offset="0.26" stop-color="white" stop-opacity="0.3"/>
<stop offset="0.33" stop-color="white" stop-opacity="0.47"/>
<stop offset="0.41" stop-color="white" stop-opacity="0.67"/>
<stop offset="0.48" stop-color="white" stop-opacity="0.91"/>
<stop offset="0.51" stop-color="white" stop-opacity="0.96"/>
<stop offset="0.53" stop-color="white" stop-opacity="0.78"/>
<stop offset="0.56" stop-color="white" stop-opacity="0.61"/>
<stop offset="0.58" stop-color="white" stop-opacity="0.47"/>
<stop offset="0.61" stop-color="white" stop-opacity="0.34"/>
<stop offset="0.64" stop-color="white" stop-opacity="0.23"/>
<stop offset="0.67" stop-color="white" stop-opacity="0.15"/>
<stop offset="0.71" stop-color="white" stop-opacity="0.08"/>
<stop offset="0.75" stop-color="white" stop-opacity="0.03"/>
<stop offset="0.82" stop-color="white" stop-opacity="0"/>
<stop offset="1" stop-color="white" stop-opacity="0"/>
</linearGradient>
<radialGradient id="paint5_radial_1_5516" cx="0" cy="0" r="1" gradientUnits="userSpaceOnUse" gradientTransform="translate(17.3167 7.06931) rotate(54.2238) scale(3.53685 3.53546)">
<stop stop-color="white"/>
<stop offset="0.09" stop-color="white" stop-opacity="0.84"/>
<stop offset="0.23" stop-color="white" stop-opacity="0.62"/>
<stop offset="0.36" stop-color="white" stop-opacity="0.43"/>
<stop offset="0.5" stop-color="white" stop-opacity="0.28"/>
<stop offset="0.63" stop-color="white" stop-opacity="0.15"/>
<stop offset="0.76" stop-color="white" stop-opacity="0.07"/>
<stop offset="0.89" stop-color="white" stop-opacity="0.02"/>
<stop offset="1" stop-color="white" stop-opacity="0"/>
</radialGradient>
<clipPath id="clip0_1_5516">
<rect width="30" height="30" fill="white" transform="matrix(1 0 0 -1 0 30.8252)"/>
</clipPath>
</defs>
</svg>
